<?xml version="1.0" encoding="UTF-8" standalone="no"?>
<!-- Created with Inkscape (http://www.inkscape.org/) -->

<svg
   width="1100"
   height="400"
   viewBox="0 0 291.04166 105.83334"
   version="1.1"
   id="svg5"
   xml:space="preserve"
   inkscape:export-filename="logo.png"
   inkscape:export-xdpi="96"
   inkscape:export-ydpi="96"
   inkscape:version="1.2.1 (9c6d41e410, 2022-07-14)"
   sodipodi:docname="logo.svg"
   xmlns:inkscape="http://www.inkscape.org/namespaces/inkscape"
   xmlns:sodipodi="http://sodipodi.sourceforge.net/DTD/sodipodi-0.dtd"
   xmlns:xlink="http://www.w3.org/1999/xlink"
   xmlns="http://www.w3.org/2000/svg"
   xmlns:svg="http://www.w3.org/2000/svg"><sodipodi:namedview
     id="namedview7"
     pagecolor="#ffffff"
     bordercolor="#000000"
     borderopacity="0.25"
     inkscape:showpageshadow="true"
     inkscape:pageopacity="0.0"
     inkscape:pagecheckerboard="0"
     inkscape:deskcolor="#d1d1d1"
     inkscape:document-units="mm"
     showgrid="false"
     showborder="false"
     borderlayer="true"
     shape-rendering="auto"
     inkscape:lockguides="false"
     inkscape:zoom="0.73851712"
     inkscape:cx="524.02306"
     inkscape:cy="291.12392"
     inkscape:window-width="1920"
     inkscape:window-height="1009"
     inkscape:window-x="-8"
     inkscape:window-y="177"
     inkscape:window-maximized="1"
     inkscape:current-layer="svg5" /><defs
     id="defs2"><linearGradient
       id="linearGradient11397"><stop
         style="stop-color:#ff7f3f;stop-opacity:1;"
         offset="0"
         id="stop11393" /><stop
         style="stop-color:#f94892;stop-opacity:1;"
         offset="1"
         id="stop11395" /></linearGradient><linearGradient
       id="linearGradient41972"><stop
         style="stop-color:#0179d4;stop-opacity:1;"
         offset="0"
         id="stop54322" /><stop
         style="stop-color:#116997;stop-opacity:1;"
         offset="1"
         id="stop54324" /></linearGradient><linearGradient
       id="linearGradient41972-1"><stop
         style="stop-color:#f94892;stop-opacity:1;"
         offset="0"
         id="stop41968" /><stop
         style="stop-color:#ff7f3f;stop-opacity:1;"
         offset="1"
         id="stop41970" /></linearGradient><linearGradient
       id="linearGradient9572-1"><stop
         style="stop-color:#0f417b;stop-opacity:1;"
         offset="0.16882515"
         id="stop9568" /><stop
         style="stop-color:#0d569f;stop-opacity:1;"
         offset="0.53550249"
         id="stop9570" /></linearGradient><linearGradient
       inkscape:collect="always"
       xlink:href="#linearGradient11397"
       id="linearGradient15059"
       x1="59.229977"
       y1="67.890831"
       x2="111.06152"
       y2="102.08989"
       gradientUnits="userSpaceOnUse"
       gradientTransform="translate(-1.719938,-5.7521742)" /><linearGradient
       inkscape:collect="always"
       xlink:href="#linearGradient9572-1"
       id="linearGradient9574-2"
       x1="102.65565"
       y1="76.49411"
       x2="38.973705"
       y2="123.99432"
       gradientUnits="userSpaceOnUse"
       gradientTransform="translate(-1.7199382,-5.7521741)" /><linearGradient
       inkscape:collect="always"
       xlink:href="#linearGradient11397"
       id="linearGradient865"
       x1="-0.132293"
       y1="62.113441"
       x2="132.42397"
       y2="62.113441"
       gradientUnits="userSpaceOnUse"
       gradientTransform="matrix(0.89463223,0,0,0.89463229,5.2498514,4.8249675)" /></defs><g
     inkscape:label="Layer 1"
     inkscape:groupmode="layer"
     id="layer1"><g
       aria-label="دُكان"
       id="text356"
       style="font-size:117.796px;font-family:'Nirmala UI';-inkscape-font-specification:'Nirmala UI';fill:#0d569f;fill-opacity:1;stroke-width:0.613518"
       transform="matrix(0.82516845,0,0,0.82516845,2.5417778,4.0659155)"><path
         d="m 168.32447,93.064777 q 5.57921,0.632694 10.35317,0.977799 4.77395,0.287588 8.05246,0.287588 4.54388,0 7.64983,-0.575176 3.10595,-0.632693 5.00403,-1.89808 1.89808,-1.265387 2.70333,-3.220984 0.86276,-1.955598 0.86276,-4.658924 0,-4.198783 -1.72552,-8.685154 -1.66801,-4.486371 -4.42886,-9.03026 -2.76084,-4.601406 -6.32693,-9.202812 -3.50857,-4.658924 -7.1897,-9.145295 h 10.64075 q 9.1453,10.180612 13.63167,19.440941 4.48637,9.202813 4.48637,17.542861 0,5.69424 -2.07063,9.375365 -2.07064,3.681125 -5.57921,5.866794 -3.50857,2.18567 -8.10998,3.04843 -4.6014,0.86276 -9.60543,0.86276 -3.33602,0 -7.76487,-0.3451 -4.42886,-0.34511 -8.74268,-0.92028 z"
         id="path408"
         style="fill:#0d569f;fill-opacity:1" /><path
         d="m 186.7301,38.135491 q -2.58829,-1.955598 -4.6014,-3.911196 -1.38043,0.287588 -2.76085,0.402623 -1.38042,0.05752 -2.58829,0.05752 -3.2785,0 -6.26941,-0.402623 -2.9334,-0.402623 -5.69424,-1.207869 l 1.03531,-4.773959 q 2.87588,0.747728 5.52169,1.207869 2.64581,0.402623 5.86679,0.402623 0.0575,0 0.34511,0 0.3451,0 0.69021,-0.05752 l 0.0575,-0.115036 q -2.99092,-3.853677 -2.99092,-7.764873 0,-2.185667 0.86277,-3.911195 0.86276,-1.725527 2.3007,-2.875879 1.43794,-1.207869 3.22098,-1.783045 1.84057,-0.632693 3.68113,-0.632693 1.78304,0 3.50857,0.575176 1.72553,0.575176 3.04843,1.783045 1.32291,1.150351 2.12815,2.933396 0.80525,1.725528 0.80525,4.083748 0,3.79616 -2.07063,6.384451 -2.07064,2.588291 -5.34914,4.083748 0.63269,0.632694 1.20787,1.092834 0.57518,0.460141 1.09283,0.920281 z m 3.2785,-15.817334 q 0,-2.358221 -1.49545,-3.393537 -1.43794,-1.092834 -3.22099,-1.092834 -0.92028,0 -1.84056,0.287588 -0.86276,0.23007 -1.61049,0.805246 -0.69021,0.517658 -1.15035,1.322904 -0.40263,0.805246 -0.40263,1.840563 0,1.668009 0.9778,3.451054 1.03532,1.725528 2.53078,3.393537 2.76084,-0.920281 4.48637,-2.530773 1.72552,-1.66801 1.72552,-4.083748 z"
         id="path410"
         style="fill:#0d569f;fill-opacity:1" /><path
         id="path412"
         d="m 153.08213,14.323063 -48.48696,31.404802 v 6.787182 c 5.52168,2.684151 10.48709,5.310507 14.89676,7.879623 4.44802,2.53077 8.24416,5.081063 11.38845,7.650179 3.14429,2.569116 5.56044,5.195471 7.24762,7.879622 1.68718,2.684151 2.5306,5.483199 2.5306,8.39742 0,1.572145 -0.28783,2.972186 -0.863,4.199227 -0.57518,1.188696 -1.59128,2.18527 -3.04839,2.990515 -1.45711,0.805246 -3.41274,1.41892 -5.86683,1.840715 -2.45407,0.421795 -5.54094,0.632519 -9.26041,0.632519 h -17.0248 v 9.605613 h 16.85271 c 4.2563,0 7.91778,-0.32586 10.98538,-0.97772 3.0676,-0.65186 5.63691,-1.5148 7.70754,-2.58847 2.10898,-1.112001 3.79632,-2.357851 5.06171,-3.738271 1.26538,-1.418766 2.22392,-2.856838 2.87579,-4.313949 0.69021,-1.495455 1.13119,-2.952543 1.32292,-4.371309 0.23007,-1.418765 0.3452,-2.703678 0.3452,-3.854028 0,-3.566087 -0.8244,-6.940261 -2.47324,-10.122897 -1.64883,-3.182636 -3.98788,-6.211941 -7.01714,-9.087817 -3.02926,-2.914221 -6.71078,-5.694253 -11.04377,-8.34006 -4.29464,-2.645805 -9.10689,-5.234129 -14.43685,-7.7649 l 38.30671,-23.984583 z"
         style="fill:#0d569f;fill-opacity:1" /><path
         d="m 105.12416,103.59049 h -1.15035 q -5.866795,0 -9.54792,-1.78304 -3.623607,-1.78305 -5.636722,-4.716442 -1.955598,-2.933397 -2.645809,-6.672039 -0.690211,-3.738643 -0.690211,-7.707356 V 15.588601 h 8.972742 v 63.729475 q 0,3.79616 0.287588,6.557004 0.287588,2.760844 1.380422,4.601406 1.092834,1.783045 3.220984,2.645809 2.128156,0.862764 5.809276,0.862764 z"
         id="path414"
         style="fill:#0d569f;fill-opacity:1" /><path
         d="m 67.726233,50.299743 q 1.955598,10.640751 1.955598,19.901081 0,8.225013 -1.610492,14.782013 -1.552975,6.55701 -5.349135,11.1009 -3.738642,4.601403 -9.893023,7.074663 -6.154381,2.47325 -15.242158,2.47325 -7.82239,0 -13.114007,-2.01311 -5.2341,-1.9556 -8.455084,-5.636723 -3.163467,-3.62361 -4.543889,-8.91523 -1.322904,-5.2341 -1.322904,-11.7911 0,-3.68113 0.402623,-7.592321 0.460141,-3.968713 1.265387,-8.455084 h 8.685154 q -0.632694,4.313819 -0.977799,7.994944 -0.345106,3.623607 -0.345106,6.902111 0,5.46417 1.035317,9.26033 1.035316,3.79616 3.278502,6.09686 2.300703,2.35822 5.92431,3.39354 3.623607,1.03531 8.800189,1.03531 6.039346,0 10.295647,-1.43794 4.2563,-1.38042 6.959626,-4.54388 2.703327,-3.16347 3.911196,-8.34005 1.265386,-5.11907 1.265386,-12.538834 0,-3.968713 -0.517658,-8.455084 Q 59.673773,56.0515 58.753491,50.299743 Z M 45.179343,37.0707 H 34.538591 V 26.660019 h 10.640752 z"
         id="path416"
         style="fill:#0d569f;fill-opacity:1" /></g></g><g
     id="g17372"
     transform="matrix(0.76529545,0,0,0.76529545,189.29817,6.6976803)"
     inkscape:export-filename=".\g173722.svg"
     inkscape:export-xdpi="109.22667"
     inkscape:export-ydpi="109.22667"
     style="display:inline"><rect
       style="display:inline;fill:#ffffff;fill-opacity:1;stroke:url(#linearGradient865);stroke-width:0.710115;stroke-dasharray:none;stroke-opacity:1"
       id="rect4520-9"
       width="118.35239"
       height="118.35239"
       x="5.2498503"
       y="1.2174578"
       ry="23.670477" /><path
       id="path9540-6"
       style="fill:url(#linearGradient9574-2);fill-opacity:1;stroke-width:0.307797"
       d="M 63.672969,7.5911979 57.510037,20.672053 c 0,0 46.799803,40.226794 36.670629,62.190519 C 83.930846,105.08758 20.539688,99.158239 20.534,99.157709 h -5.17e-4 l -6.162415,13.080851 c 0,0 84.529049,7.90784 98.196082,-21.726842 C 126.07281,61.226756 63.672969,7.5911979 63.672969,7.5911979 Z" /><path
       id="path15047"
       style="fill:url(#linearGradient15059);fill-opacity:1;stroke-width:0.264583"
       d="m 63.67297,7.591198 -6.162932,13.080855 c 0,0 46.799792,40.226816 36.670629,62.190519 -2.876,6.236129 -9.93656,10.254769 -18.6061,12.810589 C 83.279237,93.455971 107.59084,85.57084 113.29578,72.846646 105.68147,43.705714 63.67297,7.591198 63.67297,7.591198 Z m 11.640637,88.156893 c -0.32757,0.0951 -0.6577,0.18803 -0.98961,0.27906 0.31013,-0.0844 0.5456,-0.15246 0.98961,-0.27906 z m -1.70378,0.46974 c -0.14899,0.0392 -0.29877,0.0778 -0.44855,0.11628 l 0.002,0.004 c 0,0 0.35089,-0.0951 0.447,-0.11989 z" /></g></svg>
