<?xml version="1.0" encoding="UTF-8" standalone="no"?>
<!-- Created with Inkscape (http://www.inkscape.org/) -->

<svg
   width="500"
   height="500"
   viewBox="0 0 132.29167 132.29167"
   version="1.1"
   id="svg5"
   inkscape:version="1.2.1 (9c6d41e410, 2022-07-14)"
   sodipodi:docname="drawing.svg"
   xml:space="preserve"
   inkscape:export-filename="en.svg"
   inkscape:export-xdpi="96"
   inkscape:export-ydpi="96"
   xmlns:inkscape="http://www.inkscape.org/namespaces/inkscape"
   xmlns:sodipodi="http://sodipodi.sourceforge.net/DTD/sodipodi-0.dtd"
   xmlns:xlink="http://www.w3.org/1999/xlink"
   xmlns="http://www.w3.org/2000/svg"
   xmlns:svg="http://www.w3.org/2000/svg"><sodipodi:namedview
     id="namedview7"
     pagecolor="#ffffff"
     bordercolor="#000000"
     borderopacity="0.25"
     inkscape:showpageshadow="2"
     inkscape:pageopacity="0.0"
     inkscape:pagecheckerboard="0"
     inkscape:deskcolor="#d1d1d1"
     inkscape:document-units="px"
     showgrid="false"
     showborder="false"
     showguides="true"
     inkscape:zoom="1"
     inkscape:cx="171"
     inkscape:cy="271"
     inkscape:window-width="1920"
     inkscape:window-height="1009"
     inkscape:window-x="-8"
     inkscape:window-y="177"
     inkscape:window-maximized="1"
     inkscape:current-layer="layer1"><inkscape:grid
       type="xygrid"
       id="grid11232" /></sodipodi:namedview><defs
     id="defs2"><linearGradient
       id="linearGradient2899"><stop
         style="stop-color:#ff7f3f;stop-opacity:1;"
         offset="0"
         id="stop2897" /><stop
         style="stop-color:#f94892;stop-opacity:1;"
         offset="1"
         id="stop2895" /></linearGradient><linearGradient
       inkscape:collect="always"
       id="linearGradient2767"><stop
         style="stop-color:#0f417b;stop-opacity:1;"
         offset="0"
         id="stop2763" /><stop
         style="stop-color:#0d569f;stop-opacity:1;"
         offset="1"
         id="stop2765" /></linearGradient><linearGradient
       inkscape:collect="always"
       id="linearGradient49238"><stop
         style="stop-color:#0f417b;stop-opacity:1;"
         offset="0.11486487"
         id="stop49234" /><stop
         style="stop-color:#0d569f;stop-opacity:1;"
         offset="0.32432437"
         id="stop49236" /></linearGradient><linearGradient
       id="linearGradient41972-1"><stop
         style="stop-color:#f94892;stop-opacity:1;"
         offset="0"
         id="stop41968" /><stop
         style="stop-color:#ff7f3f;stop-opacity:1;"
         offset="1"
         id="stop41970" /></linearGradient><linearGradient
       inkscape:collect="always"
       xlink:href="#linearGradient49238"
       id="linearGradient17226"
       x1="16.536459"
       y1="105.53781"
       x2="85.989594"
       y2="61.500523"
       gradientUnits="userSpaceOnUse"
       gradientTransform="translate(19.84375,4.4901282)" /><linearGradient
       inkscape:collect="always"
       xlink:href="#linearGradient41972-1"
       id="linearGradient23072"
       x1="66.145836"
       y1="83.016121"
       x2="6.6145835"
       y2="83.016121"
       gradientUnits="userSpaceOnUse"
       gradientTransform="translate(19.843747,4.4901282)" /><linearGradient
       inkscape:collect="always"
       xlink:href="#linearGradient2767"
       id="linearGradient1961"
       x1="92.868752"
       y1="66.145836"
       x2="119.0625"
       y2="66.145836"
       gradientUnits="userSpaceOnUse"
       gradientTransform="translate(-0.52916668)"
       spreadMethod="reflect" /><linearGradient
       inkscape:collect="always"
       xlink:href="#linearGradient2899"
       id="linearGradient1969"
       x1="13.229167"
       y1="75.468262"
       x2="92.868752"
       y2="75.468262"
       gradientUnits="userSpaceOnUse"
       gradientTransform="translate(-0.52916672)" /></defs><g
     inkscape:label="Layer 1"
     inkscape:groupmode="layer"
     id="layer1"><g
       id="g808"
       style="display:inline"><rect
         style="opacity:1;fill:#f8fbff;fill-opacity:0.823529;stroke-width:0.264583"
         id="rect66069"
         width="132.29167"
         height="132.29167"
         x="0"
         y="0"
         ry="26.458334" /><path
         id="path4584"
         style="opacity:1;fill:url(#linearGradient23072);fill-opacity:1;fill-rule:evenodd;stroke-width:0.392945"
         d="M 66.145832,47.818751 A 39.6875,39.6875 0 0 0 26.458331,87.506252 39.6875,39.6875 0 0 0 66.145832,127.19375 39.6875,39.6875 0 0 0 105.83334,87.506252 39.6875,39.6875 0 0 0 66.145832,47.818751 Z m 0,19.84375 A 19.84375,19.84375 0 0 1 85.989579,87.506252 19.84375,19.84375 0 0 1 66.145832,107.35 19.84375,19.84375 0 0 1 46.302081,87.506252 19.84375,19.84375 0 0 1 66.145832,67.662501 Z" /><path
         id="path12106"
         style="opacity:1;fill:url(#linearGradient17226);fill-opacity:1;fill-rule:evenodd;stroke-width:0.725989"
         d="m 105.83334,4.4901282 c -10.993402,0 -19.843755,10.9867048 -19.843755,24.6336388 V 87.506252 A 19.84375,19.84375 0 0 1 66.145835,107.35 19.84375,19.84375 0 0 1 46.302084,87.506252 19.84375,19.84375 0 0 1 64.660137,67.718312 29.765625,29.765625 0 0 0 36.380209,97.428127 29.765625,29.765625 0 0 0 66.145835,127.19375 39.6875,39.6875 0 0 0 105.83334,87.506252 Z" /><path
         style="opacity:1;fill:#009cdc;fill-opacity:1;fill-rule:evenodd;stroke-width:0.725989"
         d="m 66.669834,67.669219 a 29.765625,29.765625 0 0 1 1.045414,0.05684 19.84375,19.84375 0 0 0 -1.045414,-0.05684 z"
         id="circle11234" /></g><g
       id="g2906"
       style="display:none"><rect
         style="display:inline;opacity:1;fill:#f8fbff;fill-opacity:0.822727;stroke-width:0.264583"
         id="rect2882"
         width="132.29167"
         height="132.29167"
         x="0"
         y="0"
         ry="26.458334" /><path
         id="rect1821"
         style="opacity:1;fill:url(#linearGradient1961);fill-opacity:1;stroke-width:0.257184"
         d="m 92.075002,13.229167 v 66.145835 c 0,7.328949 -5.900218,13.229167 -13.229167,13.229167 H 12.7 v 4.381645 c 0,12.230346 9.846341,22.076686 22.076689,22.076686 h 61.679958 c 12.230343,0 22.076683,-9.84634 22.076683,-22.076686 V 35.305856 c 0,-12.230348 -9.84634,-22.076689 -22.076683,-22.076689 z" /><path
         id="path1866"
         style="opacity:1;fill:url(#linearGradient1969);fill-opacity:1;stroke-width:0.257184"
         d="m 92.075002,79.375002 c 0,7.328907 -5.90026,13.229167 -13.229167,13.229167 H 52.652085 12.7 v 4.381645 c 0,12.230286 9.846414,22.076686 22.07669,22.076686 h 35.486206 c 11.059663,0 20.169459,-8.05192 21.812106,-18.6371 z" /></g></g></svg>
